# xmcd CD database file
#
# Track frame offsets:
#	150
#	11590
#	24067
#	36209
#	46199
#	58940
#	69759
#	79448
#	90831
#	102786
#	113699
#	127618
#
# Disc length: 1844 seconds
#
# Revision: 0
# Processed by: cddbd v1.5.2PL0 Copyright (c) Steve Scherf et al.
# Submitted via: CDex 1.70beta2
#
DISCID=7f07320c
DTITLE=Barney Kassel - Bossa Nova
DYEAR=1962
DGENRE=Jazz
TTITLE0=Love For Sale
TTITLE1=A String Of Pearls
TTITLE2=They Can't Take That Away From Me
TTITLE3=Summertime
TTITLE4=You Came A Long Way From St. Louis
TTITLE5=Muscrat Ramble
TTITLE6=Heartaches
TTITLE7=It Ain't Necessararily So
TTITLE8=Jada
TTITLE9=Sweet Georgia Brown
TTITLE10=Tumbling Tumbleweeds
TTITLE11=Bye Bye Blues
EXTD=YEAR: 1962
EXTT0=
EXTT1=
EXTT2=
EXTT3=
EXTT4=
EXTT5=
EXTT6=
EXTT7=
EXTT8=
EXTT9=
EXTT10=
EXTT11=
PLAYORDER=
